<?xml version="1.0" encoding="utf-8"?>
<!-- Generator: Adobe Illustrator 16.2.0, SVG Export Plug-In . SVG Version: 6.00 Build 0)  -->
<!DOCTYPE svg PUBLIC "-//W3C//DTD SVG 1.1//EN" "http://www.w3.org/Graphics/SVG/1.1/DTD/svg11.dtd">
<svg version="1.1" id="Layer_1" xmlns="http://www.w3.org/2000/svg" xmlns:xlink="http://www.w3.org/1999/xlink" x="0px" y="0px"
	 width="22.167px" height="22.166px" viewBox="0 0 22.167 22.166" enable-background="new 0 0 22.167 22.166" xml:space="preserve">
<g>
	<g>
		<path fill="#303030" d="M11.084,0C8.248,0,5.412,1.082,3.246,3.245c-4.328,4.33-4.328,11.346,0,15.675
			c2.166,2.164,5.002,3.246,7.838,3.246s5.673-1.082,7.836-3.246c4.33-4.329,4.33-11.345,0-15.675C16.757,1.082,13.92,0,11.084,0z
			 M17.695,17.695c-1.765,1.766-4.115,2.739-6.611,2.739c-2.498,0-4.846-0.974-6.613-2.739c-3.646-3.646-3.646-9.58,0-13.225
			c1.768-1.767,4.115-2.739,6.613-2.739s4.847,0.973,6.611,2.739C21.343,8.115,21.343,14.049,17.695,17.695z"/>
	</g>
	<g>
		<path fill="#303030" d="M7.298,9.26c0.046-2.202,1.492-3.802,3.739-3.802c2.909,0,3.832,1.785,3.832,2.97
			c0,1.493-0.631,2.093-1.292,2.6c-0.662,0.493-1.369,0.893-1.508,1.802v0.585H9.99v-0.693c0.094-1.339,0.724-1.939,1.341-2.416
			c0.601-0.477,1.122-0.831,1.122-1.663c0-0.938-0.492-1.385-1.308-1.385c-1.108,0-1.569,0.908-1.585,2.001H7.298z M9.775,14.338
			h2.416v2.37H9.775V14.338z"/>
	</g>
</g>
</svg>
