<?xml version="1.0" encoding="utf-8"?>
<!-- Generator: Adobe Illustrator 16.2.0, SVG Export Plug-In . SVG Version: 6.00 Build 0)  -->
<!DOCTYPE svg PUBLIC "-//W3C//DTD SVG 1.1//EN" "http://www.w3.org/Graphics/SVG/1.1/DTD/svg11.dtd">
<svg version="1.1" id="Layer_1" xmlns="http://www.w3.org/2000/svg" xmlns:xlink="http://www.w3.org/1999/xlink" x="0px" y="0px"
	 width="22.168px" height="22.166px" viewBox="0 0 22.168 22.166" enable-background="new 0 0 22.168 22.166" xml:space="preserve">
<path fill="#303030" d="M18.922,3.246C16.758,1.082,13.92,0,11.084,0C8.246,0,5.412,1.082,3.246,3.246
	c-4.328,4.329-4.328,11.347,0,15.675c2.166,2.164,5,3.245,7.838,3.245c2.836,0,5.674-1.081,7.838-3.245
	C23.25,14.593,23.25,7.575,18.922,3.246z M17.695,17.696c-1.766,1.766-4.113,2.739-6.611,2.739c-2.496,0-4.846-0.974-6.613-2.739
	c-3.646-3.646-3.646-9.58,0-13.225c1.768-1.768,4.117-2.74,6.613-2.74c2.5,0,4.846,0.973,6.611,2.74
	C21.344,8.116,21.344,14.05,17.695,17.696z"/>
<path fill="#303030" d="M11.084,7.766"/>
<g>
	<polygon fill="#303030" points="11.084,7.644 6.655,11.112 6.655,16.624 10.136,16.624 10.136,13.389 12.056,13.389 12.056,16.624 
		15.513,16.624 15.513,11.112 	"/>
	<polygon fill="#303030" points="5.458,10.775 11.084,6.369 16.709,10.775 18.331,10.775 11.084,5.099 3.837,10.775 	"/>
</g>
</svg>
