<?xml version="1.0" encoding="utf-8"?>
<!-- Generator: Adobe Illustrator 16.2.0, SVG Export Plug-In . SVG Version: 6.00 Build 0)  -->
<!DOCTYPE svg PUBLIC "-//W3C//DTD SVG 1.1//EN" "http://www.w3.org/Graphics/SVG/1.1/DTD/svg11.dtd">
<svg version="1.1" id="Layer_1" xmlns="http://www.w3.org/2000/svg" xmlns:xlink="http://www.w3.org/1999/xlink" x="0px" y="0px"
	 width="22.167px" height="22.166px" viewBox="0 0 22.167 22.166" enable-background="new 0 0 22.167 22.166" xml:space="preserve">
<g>
	<path fill="#303030" d="M11.084,0C8.248,0,5.412,1.082,3.246,3.245c-4.328,4.33-4.328,11.346,0,15.675
		c2.166,2.164,5.002,3.246,7.838,3.246s5.673-1.082,7.836-3.246c4.33-4.329,4.33-11.345,0-15.675C16.757,1.082,13.92,0,11.084,0z
		 M17.695,17.695c-1.765,1.766-4.115,2.739-6.611,2.739c-2.498,0-4.846-0.974-6.613-2.739c-3.646-3.646-3.646-9.58,0-13.225
		c1.768-1.767,4.115-2.739,6.613-2.739s4.847,0.973,6.611,2.739C21.343,8.115,21.343,14.049,17.695,17.695z"/>
	<polygon fill="#303030" points="15.634,16.145 12.747,16.145 11.031,13.038 9.303,16.145 6.533,16.145 9.653,11.18 6.729,6.499 
		9.589,6.499 11.097,9.242 12.617,6.499 15.387,6.499 12.475,11.102 	"/>
</g>
</svg>
