<?xml version="1.0" encoding="utf-8"?>
<!-- Generator: Adobe Illustrator 16.2.0, SVG Export Plug-In . SVG Version: 6.00 Build 0)  -->
<!DOCTYPE svg PUBLIC "-//W3C//DTD SVG 1.1//EN" "http://www.w3.org/Graphics/SVG/1.1/DTD/svg11.dtd">
<svg version="1.1" id="Layer_1" xmlns="http://www.w3.org/2000/svg" xmlns:xlink="http://www.w3.org/1999/xlink" x="0px" y="0px"
	 width="22.167px" height="22.166px" viewBox="0 0 22.167 22.166" enable-background="new 0 0 22.167 22.166" xml:space="preserve">
<g>
	<path fill="#303030" d="M11.084,22.166c2.836,0,5.673-1.082,7.836-3.246c4.33-4.329,4.33-11.345,0-15.675
		C16.757,1.082,13.92,0,11.084,0S5.412,1.082,3.246,3.245c-4.328,4.33-4.328,11.346,0,15.675
		C5.412,21.084,8.248,22.166,11.084,22.166z M4.471,4.471c1.768-1.767,4.115-2.739,6.613-2.739s4.847,0.973,6.611,2.739
		c3.647,3.645,3.647,9.578,0,13.225c-1.765,1.766-4.115,2.739-6.611,2.739c-2.498,0-4.846-0.974-6.613-2.739
		C0.825,14.049,0.825,8.115,4.471,4.471z"/>
	<rect x="6.271" y="11.103" fill="#303030" width="2.342" height="4.919"/>
	<rect x="9.551" y="8.645" fill="#303030" width="2.34" height="7.377"/>
	<rect x="12.828" y="5.952" fill="#303030" width="2.342" height="10.069"/>
</g>
</svg>
